<svg width="535" height="555" viewBox="0 0 535 555" fill="none" xmlns="http://www.w3.org/2000/svg">
<path d="M311.094 111.284H422.481V222.644C422.481 284.106 372.57 334.005 311.094 334.005C249.618 334.005 199.707 284.106 199.707 222.644C199.707 161.183 249.618 111.284 311.094 111.284Z" fill="#98DAD4"/>
<path d="M144.243 223.771C175.029 223.771 199.986 198.82 199.986 168.041C199.986 137.262 175.029 112.311 144.243 112.311C113.457 112.311 88.5 137.262 88.5 168.041C88.5 198.82 113.457 223.771 144.243 223.771Z" fill="#00A594"/>
<path d="M90.0684 223.798H199.995V333.698L90.0684 223.798Z" fill="#63C8BE"/>
<path d="M90.0684 334.005H199.995V443.896L90.0684 334.005Z" fill="#00A594"/>
<path d="M534.598 334.086C472.807 334.086 422.725 284.006 422.725 222.239C422.725 160.462 472.816 110.392 534.598 110.392V334.095V334.086Z" fill="#00A594"/>
<path d="M255.5 334.005C255.5 364.937 280.577 390.005 311.5 390.005C342.432 390.005 367.5 364.928 367.5 334.005H255.5Z" fill="#E6F6F4"/>
<path d="M367.009 334.013C367.009 364.636 342.175 389.464 311.545 389.464C280.915 389.464 256.081 364.636 256.081 334.013H200.618C200.618 395.267 250.285 444.923 311.554 444.923C372.823 444.923 422.49 395.267 422.49 334.013H367.027H367.009Z" fill="#63C8BE"/>
<path d="M367.415 2.03217H307.769C278.402 2.03217 254.595 25.8333 254.595 55.1935V56.8246C254.595 86.1848 278.402 109.986 307.769 109.986H367.415C396.782 109.986 420.589 86.1848 420.589 56.8246V55.1935C420.589 25.8333 396.782 2.03217 367.415 2.03217Z" stroke="#00534A" stroke-width="1.97" stroke-miterlimit="10"/>
<path d="M312.086 2.03217H252.44C223.073 2.03217 199.266 25.8333 199.266 55.1935V56.8246C199.266 86.1848 223.073 109.986 252.44 109.986H312.086C341.454 109.986 365.26 86.1848 365.26 56.8246V55.1935C365.26 25.8333 341.454 2.03217 312.086 2.03217Z" stroke="#00534A" stroke-width="1.97" stroke-miterlimit="10"/>
<path d="M364.81 2.03217C334.991 2.03217 310.815 26.2021 310.815 56.0136C310.815 85.825 334.991 109.995 364.81 109.995" stroke="#00534A" stroke-width="1.97" stroke-miterlimit="10"/>
<path d="M365.251 1.54553V109.995" stroke="#00534A" stroke-width="1.97" stroke-miterlimit="10"/>
<path d="M365.252 54.6798H199.338" stroke="#00534A" stroke-width="1.97" stroke-miterlimit="10"/>
<path d="M309.031 2.92435V109.103" stroke="#00534A" stroke-width="1.97" stroke-miterlimit="10"/>
<path d="M531.894 387.68V388.122C531.894 397.837 529.325 406.939 524.818 414.806C522.429 418.979 519.509 422.8 516.128 426.17C506.384 435.912 492.926 441.932 478.071 441.932C477.629 441.932 477.178 441.932 476.737 441.914C457.275 441.445 440.383 430.649 431.315 414.806C426.817 406.948 424.239 397.837 424.239 388.122V387.68H476.728V387.698C477.169 387.698 477.62 387.68 478.062 387.68H531.885H531.894Z" fill="#00534A"/>
<path d="M531.894 386.346V387.68H424.248V386.346C424.248 371.495 430.269 358.031 440.013 348.298C449.748 338.556 463.206 332.536 478.071 332.536C507.79 332.536 531.894 356.634 531.894 386.346Z" stroke="#00534A" stroke-width="1.97" stroke-miterlimit="10"/>
<path d="M531.894 388.122V499.302C531.894 514.162 525.872 527.626 516.128 537.35C506.384 547.092 492.926 553.112 478.071 553.112C448.342 553.112 424.248 529.023 424.248 499.302V388.122C424.248 397.837 426.817 406.939 431.324 414.806C440.392 430.658 457.284 441.445 476.746 441.914C477.187 441.914 477.638 441.932 478.08 441.932C492.935 441.932 506.402 435.912 516.137 426.17C519.517 422.8 522.447 418.979 524.827 414.806C529.325 406.948 531.903 397.837 531.903 388.122H531.894Z" stroke="#00534A" stroke-width="1.97" stroke-miterlimit="10"/>
<path d="M405.959 460.208C396.007 450.259 382.838 444.626 368.794 444.293V444.266L365.693 444.275L255.045 444.266C225.028 444.266 200.609 468.679 200.609 498.689C200.609 513.225 206.27 526.896 216.555 537.17C226.831 547.452 240.496 553.112 255.045 553.112H365.693V553.094L367.91 553.112H368.794V553.085C398.162 552.373 421.905 528.149 421.905 498.68C421.905 484.134 416.244 470.463 405.959 460.199V460.208ZM365.251 453.845V543.541C353.821 543.163 343.122 538.53 335.027 530.429C326.545 521.958 321.875 510.684 321.875 498.689C321.875 474.582 341.247 454.647 365.251 453.836V453.845Z" fill="#00534A"/>
<path d="M144.794 553.121C174.708 553.121 198.959 528.876 198.959 498.968C198.959 469.061 174.708 444.816 144.794 444.816C114.879 444.816 90.6279 469.061 90.6279 498.968C90.6279 528.876 114.879 553.121 144.794 553.121Z" stroke="#00534A" stroke-width="1.96" stroke-miterlimit="10"/>
<path d="M144.793 524.679C159.504 524.679 171.43 512.756 171.43 498.049C171.43 483.342 159.504 471.419 144.793 471.419C130.082 471.419 118.157 483.342 118.157 498.049C118.157 512.756 130.082 524.679 144.793 524.679Z" stroke="#00534A" stroke-width="1.96" stroke-miterlimit="10"/>
<path d="M438.437 17.8932C416.749 39.5758 416.749 74.7223 438.437 96.396C460.125 118.079 495.28 118.079 516.959 96.396L438.437 17.8932Z" fill="#98DAD4"/>
<path d="M518.238 94.7648C539.926 73.0822 539.926 37.9357 518.238 16.262C496.551 -5.42067 461.396 -5.42067 439.717 16.262L518.238 94.7648Z" fill="#63C8BE"/>
<path d="M55.7432 334.005C24.9571 334.005 5.34724e-05 358.956 5.61631e-05 389.734C5.88539e-05 420.513 24.9571 445.464 55.7432 445.464L88.9863 445.464L88.9863 334.005L55.7432 334.005Z" fill="#98DAD4"/>
</svg>
