<svg width="1134" height="243" viewBox="0 0 1134 243" fill="none" xmlns="http://www.w3.org/2000/svg">
<g clip-path="url(#clip0_129_1601)">
<path d="M862.542 65.675V231.236C862.542 237.717 857.281 242.977 850.799 242.977H762.497C756.015 242.977 750.755 237.717 750.755 231.236V65.675H862.542Z" fill="#00A594"/>
<path d="M862.542 11.8811V51.211H750.755V11.8811C750.755 5.33007 756.015 0.023468 762.497 0.023468H850.799C857.281 0.023468 862.542 5.33007 862.542 11.8811Z" fill="#63C8BE"/>
<path d="M1065.94 65.675V231.236C1065.94 237.717 1060.68 242.977 1054.2 242.977H965.921C959.439 242.977 954.179 237.717 954.179 231.236V65.675H1065.94Z" fill="#00A594"/>
<path d="M1065.85 0H954.179V51.1876H1065.85V0Z" fill="#63C8BE"/>
<path d="M1134 11.8811V39.3299C1134 45.881 1128.74 51.1876 1122.26 51.1876H1080.03V0H1122.26C1128.74 0 1134 5.3066 1134 11.8577V11.8811Z" fill="#98DAD4"/>
<path d="M940.088 0V51.1876H897.769C891.287 51.1876 886.026 45.881 886.026 39.3299V11.8811C886.026 5.33008 891.287 0.0234805 897.769 0.0234805H940.088V0Z" fill="#98DAD4"/>
<path d="M703.669 121.488C692.396 137.361 673.867 147.693 652.918 147.693H515.322V95.284H652.918C673.867 95.284 692.396 105.615 703.669 121.488Z" fill="#63C8BE"/>
<path d="M624.291 124.682V124.729L624.267 124.705L624.291 124.682Z" fill="#00A594"/>
<path d="M225.241 70.4416C225.241 109.325 193.701 140.883 154.787 140.883H123.623V0H154.787C193.701 0 225.241 31.5344 225.241 70.4416Z" fill="#98DAD4"/>
<path d="M109.532 0V140.883H0V11.7403C0 5.25964 5.26055 0 11.7423 0H109.532Z" fill="#63C8BE"/>
<path d="M109.532 154.925V230.579C109.532 237.059 104.272 242.319 97.7898 242.319H11.7423C5.26055 242.319 0 237.059 0 230.579V154.925H109.532Z" fill="#00A594"/>
<path d="M341.231 12.1394V117.144H255.771V12.1394C255.771 5.44748 261.008 0 267.513 0H329.489C335.97 0 341.231 5.44748 341.231 12.1394Z" fill="#00A594"/>
<path d="M480.964 131.233C475.774 280.311 260.914 280.193 255.771 131.233H480.964Z" fill="#63C8BE"/>
<path d="M480.964 12.1394V117.144H395.504V12.1394C395.504 5.44748 400.741 0 407.246 0H469.222C475.704 0 480.964 5.44748 480.964 12.1394Z" fill="#98DAD4"/>
<path d="M711.325 108.457C718.393 97.4912 722.55 84.436 722.55 70.4416C722.55 31.5344 690.987 0 652.097 0H527.065C520.583 0 515.322 5.23616 515.322 11.7403V81.1018H651.909C654.891 81.1018 657.827 81.2896 660.715 81.6418C680.372 83.6846 698.572 93.2881 711.325 108.457Z" fill="#98DAD4"/>
<path d="M665.271 160.771C660.95 161.593 656.488 162.016 651.909 162.016H515.322V231.236C515.322 237.717 520.583 242.977 527.065 242.977H652.097C690.987 242.977 722.55 211.442 722.55 172.535C722.55 158.541 718.417 145.532 711.348 134.543C699.582 148.538 683.19 157.813 665.271 160.771Z" fill="#00A594"/>
</g>
<defs>
<clipPath id="clip0_129_1601">
<rect width="1134" height="243" fill="white"/>
</clipPath>
</defs>
</svg>
