<svg width="664" height="514" viewBox="0 0 664 514" fill="none" xmlns="http://www.w3.org/2000/svg">
<path d="M55.23 295.05C31.9 295.05 20.24 282.7 20.24 258V189.04C20.24 169.83 13.49 159.77 0 158.85V134.15C13.49 133.24 20.24 123.4 20.24 104.65V37.4C20.23 12.47 31.9 0 55.23 0H80.96V26.42H68.61C56.95 26.42 51.11 34.2 51.11 49.75V108.07C51.11 129.34 44.7 142.15 31.9 146.5C44.71 150.85 51.11 163.77 51.11 185.27V245.31C51.11 252.86 52.65 258.69 55.74 262.81C58.83 266.93 63.12 268.99 68.61 268.99H80.96V295.06H55.23V295.05Z" fill="#007467"/>
<path d="M427.53 295.05H401.46V268.98H414.15C419.64 268.98 423.93 266.92 427.02 262.8C430.11 258.68 431.65 252.85 431.65 245.3V185.26C431.65 163.76 437.94 150.84 450.52 146.49C437.94 142.37 431.65 129.57 431.65 108.06V49.74C431.65 34.19 425.82 26.41 414.15 26.41H401.46V0H427.53C450.63 0 462.18 12.47 462.18 37.4V104.64C462.18 123.4 468.92 133.23 482.42 134.14V158.84C468.92 159.76 462.18 169.82 462.18 189.03V257.99C462.18 282.69 450.63 295.04 427.53 295.04V295.05Z" fill="#007467"/>
<path d="M150.6 25.61C150.6 11.9299 139.51 0.839996 125.83 0.839996C112.15 0.839996 101.06 11.9299 101.06 25.61C101.06 39.2901 112.15 50.38 125.83 50.38C139.51 50.38 150.6 39.2901 150.6 25.61Z" fill="#00A594"/>
<path d="M150.6 108.17C150.6 94.4899 139.51 83.4 125.83 83.4C112.15 83.4 101.06 94.4899 101.06 108.17C101.06 121.85 112.15 132.94 125.83 132.94C139.51 132.94 150.6 121.85 150.6 108.17Z" fill="#98DAD4"/>
<path d="M280.63 83.4H202.2C188.52 83.4 177.43 94.4899 177.43 108.17C177.43 121.85 188.52 132.94 202.2 132.94H280.63C294.31 132.94 305.4 121.85 305.4 108.17C305.4 94.4899 294.31 83.4 280.63 83.4Z" fill="#E6F6F4"/>
<path d="M379.69 83.4H346.67C340.971 83.4 336.35 88.0204 336.35 93.72V122.62C336.35 128.32 340.971 132.94 346.67 132.94H379.69C385.39 132.94 390.01 128.32 390.01 122.62V93.72C390.01 88.0204 385.39 83.4 379.69 83.4Z" fill="#00A594"/>
<path d="M390.02 190.73C390.02 177.05 378.93 165.96 365.25 165.96C351.57 165.96 340.48 177.05 340.48 190.73C340.48 204.41 351.57 215.5 365.25 215.5C378.93 215.5 390.02 204.41 390.02 190.73Z" fill="#E6F6F4"/>
<path d="M303.33 165.96H270.31C264.61 165.96 259.99 170.58 259.99 176.28V205.18C259.99 210.88 264.61 215.5 270.31 215.5H303.33C309.03 215.5 313.65 210.88 313.65 205.18V176.28C313.65 170.58 309.03 165.96 303.33 165.96Z" fill="#4EC1B5"/>
<path d="M206.32 165.96H125.83C112.15 165.96 101.06 177.05 101.06 190.73C101.06 204.41 112.15 215.5 125.83 215.5H206.32C220 215.5 231.09 204.41 231.09 190.73C231.09 177.05 220 165.96 206.32 165.96Z" fill="#00A594"/>
<path d="M150.6 271.23C150.6 257.55 139.51 246.46 125.83 246.46C112.15 246.46 101.06 257.55 101.06 271.23C101.06 284.91 112.15 296 125.83 296C139.51 296 150.6 284.91 150.6 271.23Z" fill="#98DAD4"/>
<path d="M218.7 246.46H185.68C179.981 246.46 175.36 251.08 175.36 256.78V285.68C175.36 291.38 179.981 296 185.68 296H218.7C224.4 296 229.02 291.38 229.02 285.68V256.78C229.02 251.08 224.4 246.46 218.7 246.46Z" fill="#00A594"/>
<path d="M363.19 246.46H284.76C271.08 246.46 259.99 257.55 259.99 271.23C259.99 284.91 271.08 296 284.76 296H363.19C376.87 296 387.96 284.91 387.96 271.23C387.96 257.55 376.87 246.46 363.19 246.46Z" fill="#4EC1B5"/>
<path d="M229.02 0.839996H196C190.3 0.839996 185.68 5.46042 185.68 11.16V40.06C185.68 45.7596 190.3 50.38 196 50.38H229.02C234.72 50.38 239.34 45.7596 239.34 40.06V11.16C239.34 5.46042 234.72 0.839996 229.02 0.839996Z" fill="#E6F6F4"/>
<path d="M323.97 0.839996H284.76C271.08 0.839996 259.99 11.9299 259.99 25.61C259.99 39.2901 271.08 50.38 284.76 50.38H323.97C337.65 50.38 348.74 39.2901 348.74 25.61C348.74 11.9299 337.65 0.839996 323.97 0.839996Z" fill="#4EC1B5"/>
<path d="M558.03 309.44C552.98 311.42 543.7 312.72 533.09 312.72C521.47 312.72 511.45 311.14 506.83 308.86L507.28 307.15L508.5 302.5L512.41 287.64C516.18 289.3 523.7 290.43 532.35 290.43C541 290.43 548.55 289.3 552.31 287.64L556.07 301.97L557.42 307.16L558.03 309.45V309.44Z" fill="#48B5A8"/>
<path d="M600.71 384.06H461.01L477.7 343.71C478.4 342.05 480.02 340.96 481.83 340.96H498.03L495.38 349.06L493.64 354.37L492.84 356.81L491.68 360.36C492.84 361.46 494.79 362.47 497.39 363.38C504.88 366 517.74 367.72 532.34 367.72C544.57 367.72 555.57 366.52 563.22 364.58C566.85 363.67 569.71 362.6 571.6 361.41L570.59 357.52L569.56 353.64L568.27 348.65L566.26 340.97H579.87C581.68 340.97 583.3 342.05 584 343.72L600.69 384.07L600.71 384.06Z" fill="#009684"/>
<path d="M461.01 384.06H600.71L599.58 386.85C598.44 389.66 595.72 391.5 592.69 391.5H469.02C465.99 391.5 463.27 389.66 462.13 386.85L461 384.06H461.01Z" fill="#006B5B"/>
<path d="M563.61 330.73C559.73 333.98 546.88 336.36 531.6 336.36C517.7 336.36 505.8 334.4 500.85 331.59L505.69 313.12C510.12 315.51 520.39 317.18 532.34 317.18C544.29 317.18 554.56 315.52 558.99 313.12L563.61 330.73Z" fill="#48B5A8"/>
<path d="M570.6 357.51C564.08 360.9 549.41 363.25 532.35 363.25C514.1 363.25 498.58 360.56 492.85 356.8L493.65 354.36L495.39 349.05L498.04 340.95L499.82 335.51C503.97 338.66 516.63 340.95 531.61 340.95C548.52 340.95 562.49 338.02 564.54 334.25L566.28 340.95L568.29 348.63L569.58 353.62L570.61 357.5L570.6 357.51Z" fill="#48B5A8"/>
<path d="M564.53 334.26C562.48 338.03 548.51 340.96 531.6 340.96C516.62 340.96 503.96 338.67 499.81 335.52L500.85 331.6C505.8 334.41 517.7 336.37 531.6 336.37C546.88 336.37 559.73 333.99 563.61 330.74L564.53 334.26Z" fill="#48B5A8"/>
<path d="M558.99 313.12C554.56 315.51 544.29 317.18 532.34 317.18C520.39 317.18 510.12 315.52 505.69 313.12L506.82 308.85C511.44 311.14 521.46 312.71 533.08 312.71C543.69 312.71 552.96 311.4 558.02 309.43L558.99 313.12Z" fill="#E6F6F4"/>
<path d="M552.3 287.63C548.54 289.29 541.01 290.42 532.34 290.42C523.67 290.42 516.17 289.29 512.4 287.63L513.46 283.59C517.47 285.03 524.44 285.97 532.35 285.97C540.26 285.97 547.23 285.03 551.24 283.59L552.31 287.63H552.3Z" fill="#48B5A8"/>
<path d="M544.86 259.32C541.9 260.17 537.4 260.7 532.35 260.7C527.3 260.7 522.79 260.17 519.84 259.32L520.32 257.49L521.15 254.31L526.54 233.79C528.12 227.82 536.59 227.82 538.16 233.79L543.55 254.31L544.38 257.49L544.86 259.32Z" fill="#48B5A8"/>
<path d="M551.23 283.59C547.22 285.03 540.25 285.97 532.34 285.97C524.43 285.97 517.46 285.03 513.45 283.59L513.79 282.28L515.07 277.44L519.1 262.07C522 263.04 526.86 263.68 532.34 263.68C537.82 263.68 542.68 263.04 545.58 262.07L549.61 277.44L550.89 282.28L551.23 283.59Z" fill="#48B5A8"/>
<path d="M545.59 262.07C542.69 263.04 537.83 263.68 532.35 263.68C526.87 263.68 522.01 263.04 519.11 262.07L519.84 259.32C522.8 260.17 527.3 260.7 532.35 260.7C537.4 260.7 541.91 260.17 544.86 259.32L545.59 262.07Z" fill="#E6F6F4"/>
<path d="M571.61 361.41C569.72 362.6 566.85 363.67 563.23 364.58C555.58 366.51 544.58 367.72 532.35 367.72C517.74 367.72 504.89 366 497.4 363.38C494.8 362.47 492.85 361.46 491.69 360.36L492.85 356.81C498.59 360.57 514.1 363.26 532.35 363.26C549.41 363.26 564.08 360.91 570.6 357.52L571.61 361.41Z" fill="#E6F6F4"/>
<path d="M557.5 322.19C560.94 326.39 565.04 334.81 568.31 344.9C571.89 355.96 573.48 365.97 572.73 371.07L570.97 371.17L566.17 371.44L550.83 372.3C551.25 368.2 550.01 360.69 547.34 352.47C544.67 344.23 541.27 337.41 538.53 334.34L551 326.35L555.52 323.46L557.51 322.18L557.5 322.19Z" fill="#4EC1B5"/>
<path d="M615.33 258.59L658.38 391.49L614.85 388.05C613.05 387.9 611.52 386.69 610.96 384.97L605.97 369.56L614.49 369.58L620.07 369.6H622.64L626.38 369.62C627.07 368.18 627.43 366.02 627.49 363.26C627.67 355.33 625.35 342.57 620.85 328.67C617.08 317.03 612.55 306.94 608.35 300.26C606.37 297.09 604.47 294.69 602.76 293.26L599.37 295.42L596 297.59L591.65 300.36L584.96 304.64L580.76 291.69C580.2 289.97 580.73 288.09 582.1 286.91L615.34 258.6L615.33 258.59Z" fill="#00A594"/>
<path d="M658.38 391.49L615.33 258.59L618.33 258.8C621.35 259.01 623.94 261.04 624.87 263.92L662.98 381.57C663.91 384.45 663 387.61 660.68 389.56L658.38 391.49Z" fill="#007467"/>
<path d="M576.04 310.31C580.33 313 586.56 324.49 591.26 339.03C595.54 352.25 597.34 364.18 596.2 369.75L577.13 370.83C578.04 365.88 576.46 355.6 572.78 344.23C569.1 332.86 564.35 323.61 560.71 320.13L576.04 310.31Z" fill="#4EC1B5"/>
<path d="M599.36 295.41C604.59 300.57 611.35 313.8 616.61 330.03C622.23 347.39 624.46 362.98 622.65 369.6H620.08L614.5 369.57L605.98 369.55L600.26 369.53C601.98 364.61 600.26 351.86 595.64 337.61C590.43 321.52 583.34 309.13 579.11 308.35L584.95 304.63L591.64 300.35L595.99 297.58L599.36 295.41Z" fill="#4EC1B5"/>
<path d="M579.1 308.35C583.32 309.14 590.41 321.53 595.63 337.61C600.25 351.86 601.97 364.61 600.25 369.53L596.2 369.75C597.35 364.18 595.54 352.25 591.26 339.03C586.55 324.5 580.33 313 576.04 310.31L579.11 308.35H579.1Z" fill="#4EC1B5"/>
<path d="M560.71 320.13C564.35 323.61 569.1 332.86 572.78 344.23C576.46 355.6 578.04 365.88 577.13 370.83L572.72 371.07C573.47 365.97 571.88 355.95 568.3 344.9C565.03 334.81 560.93 326.39 557.49 322.19L560.7 320.14L560.71 320.13Z" fill="#E6F6F4"/>
<path d="M538.52 334.35C541.26 337.41 544.66 344.23 547.33 352.48C550 360.71 551.24 368.21 550.82 372.31L546.65 372.55C546.78 368.29 545.53 361.37 543.09 353.85C540.65 346.33 537.61 339.99 535.01 336.61L538.53 334.35H538.52Z" fill="#4EC1B5"/>
<path d="M513.88 350.16C515.6 352.71 517.49 356.83 519.05 361.64C520.61 366.45 521.49 370.9 521.59 373.97L519.7 374.08L516.42 374.27L495.23 375.46C489.06 375.8 486.45 367.74 491.65 364.4L509.51 352.94L512.28 351.17L513.87 350.15L513.88 350.16Z" fill="#4EC1B5"/>
<path d="M535 336.62C537.61 339.99 540.65 346.34 543.08 353.86C545.52 361.38 546.77 368.3 546.64 372.56L545.29 372.64L540.29 372.92L524.43 373.82C524.46 370.77 523.57 365.95 521.88 360.73C520.19 355.51 518.08 351.09 516.27 348.63L529.65 340.06L533.87 337.35L535.01 336.62H535Z" fill="#4EC1B5"/>
<path d="M516.27 348.62C518.08 351.08 520.19 355.51 521.88 360.72C523.57 365.94 524.46 370.76 524.43 373.81L521.59 373.96C521.48 370.89 520.61 366.44 519.05 361.63C517.49 356.82 515.6 352.7 513.88 350.15L516.27 348.61V348.62Z" fill="#E6F6F4"/>
<path d="M602.75 293.25C604.46 294.68 606.36 297.08 608.34 300.25C612.54 306.94 617.07 317.03 620.84 328.66C625.34 342.56 627.66 355.32 627.48 363.25C627.42 366 627.06 368.17 626.37 369.61H622.63C624.44 362.99 622.22 347.4 616.59 330.03C611.33 313.8 604.58 300.57 599.34 295.41L602.73 293.25H602.75Z" fill="#E6F6F4"/>
<path d="M35.3327 451.273H45.6349V482.917C45.6349 486.47 44.7863 489.579 43.0891 492.244C41.4078 494.908 39.0523 496.986 36.0227 498.477C32.9931 499.952 29.4639 500.69 25.435 500.69C21.3903 500.69 17.8531 499.952 14.8235 498.477C11.7939 496.986 9.43845 494.908 7.7571 492.244C6.07576 489.579 5.23509 486.47 5.23509 482.917V451.273H15.5373V482.037C15.5373 483.892 15.9418 485.542 16.7507 486.985C17.5755 488.429 18.7334 489.563 20.2244 490.388C21.7154 491.213 23.4523 491.625 25.435 491.625C27.4336 491.625 29.1705 491.213 30.6456 490.388C32.1366 489.563 33.2866 488.429 34.0955 486.985C34.9203 485.542 35.3327 483.892 35.3327 482.037V451.273ZM64.0564 478.872V500H53.9207V463.455H63.5805V469.902H64.0088C64.8177 467.777 66.1739 466.096 68.0773 464.858C69.9807 463.605 72.2886 462.979 75.001 462.979C77.5389 462.979 79.7516 463.534 81.6391 464.644C83.5267 465.754 84.9939 467.341 86.0408 469.403C87.0876 471.449 87.6111 473.892 87.6111 476.731V500H77.4754V478.539C77.4913 476.303 76.9202 474.558 75.7623 473.305C74.6044 472.036 73.0103 471.401 70.98 471.401C69.6159 471.401 68.4104 471.695 67.3635 472.282C66.3325 472.868 65.5236 473.725 64.9367 474.851C64.3657 475.962 64.0722 477.302 64.0564 478.872ZM109.066 500.595C106.29 500.595 103.776 499.881 101.524 498.453C99.2873 497.01 97.5108 494.893 96.1942 492.101C94.8936 489.293 94.2433 485.851 94.2433 481.775C94.2433 477.587 94.9174 474.106 96.2656 471.33C97.6139 468.538 99.4063 466.452 101.643 465.072C103.895 463.677 106.362 462.979 109.042 462.979C111.088 462.979 112.794 463.328 114.158 464.026C115.538 464.708 116.648 465.564 117.489 466.595C118.345 467.61 118.996 468.61 119.44 469.593H119.749V451.273H129.861V500H119.868V494.147H119.44C118.964 495.162 118.29 496.169 117.417 497.169C116.561 498.152 115.442 498.969 114.062 499.619C112.698 500.27 111.033 500.595 109.066 500.595ZM112.278 492.529C113.912 492.529 115.292 492.085 116.418 491.197C117.56 490.293 118.432 489.032 119.035 487.414C119.654 485.796 119.963 483.9 119.963 481.727C119.963 479.554 119.662 477.667 119.059 476.065C118.456 474.463 117.584 473.225 116.442 472.353C115.3 471.481 113.912 471.044 112.278 471.044C110.613 471.044 109.209 471.496 108.067 472.401C106.925 473.305 106.06 474.558 105.473 476.16C104.886 477.762 104.593 479.618 104.593 481.727C104.593 483.853 104.886 485.732 105.473 487.366C106.076 488.984 106.941 490.253 108.067 491.173C109.209 492.077 110.613 492.529 112.278 492.529ZM154.849 500.714C151.09 500.714 147.854 499.952 145.142 498.43C142.445 496.891 140.367 494.718 138.908 491.911C137.449 489.087 136.719 485.748 136.719 481.894C136.719 478.135 137.449 474.835 138.908 471.996C140.367 469.157 142.421 466.944 145.07 465.358C147.735 463.772 150.86 462.979 154.445 462.979C156.855 462.979 159.1 463.367 161.178 464.145C163.272 464.906 165.096 466.056 166.65 467.594C168.22 469.133 169.442 471.068 170.314 473.4C171.187 475.716 171.623 478.428 171.623 481.537V484.321H140.764V478.039H162.082C162.082 476.58 161.765 475.287 161.13 474.161C160.496 473.035 159.615 472.155 158.489 471.52C157.379 470.87 156.086 470.545 154.611 470.545C153.072 470.545 151.708 470.902 150.519 471.615C149.345 472.313 148.425 473.257 147.759 474.447C147.093 475.621 146.752 476.929 146.736 478.373V484.344C146.736 486.153 147.069 487.715 147.735 489.032C148.417 490.348 149.377 491.363 150.614 492.077C151.851 492.791 153.318 493.148 155.016 493.148C156.142 493.148 157.173 492.989 158.109 492.672C159.044 492.355 159.845 491.879 160.512 491.244C161.178 490.61 161.685 489.833 162.034 488.913L171.409 489.531C170.933 491.784 169.957 493.75 168.482 495.432C167.023 497.097 165.135 498.398 162.82 499.334C160.52 500.254 157.863 500.714 154.849 500.714ZM178.237 500V463.455H188.063V469.831H188.444C189.11 467.563 190.229 465.85 191.799 464.692C193.369 463.518 195.177 462.931 197.224 462.931C197.731 462.931 198.278 462.963 198.865 463.026C199.452 463.09 199.968 463.177 200.412 463.288V472.282C199.936 472.139 199.278 472.012 198.437 471.901C197.596 471.79 196.827 471.734 196.129 471.734C194.638 471.734 193.306 472.06 192.132 472.71C190.974 473.344 190.054 474.233 189.372 475.375C188.706 476.517 188.373 477.833 188.373 479.324V500H178.237ZM264.343 468.332H253.921C253.731 466.984 253.342 465.786 252.756 464.739C252.169 463.677 251.415 462.772 250.495 462.027C249.575 461.281 248.513 460.71 247.307 460.314C246.117 459.917 244.825 459.719 243.429 459.719C240.907 459.719 238.71 460.346 236.838 461.599C234.967 462.836 233.515 464.644 232.484 467.023C231.453 469.387 230.938 472.258 230.938 475.636C230.938 479.11 231.453 482.029 232.484 484.392C233.531 486.755 234.99 488.54 236.862 489.745C238.734 490.951 240.899 491.554 243.358 491.554C244.737 491.554 246.014 491.371 247.188 491.006C248.378 490.642 249.433 490.11 250.353 489.412C251.273 488.699 252.034 487.834 252.637 486.819C253.255 485.804 253.684 484.646 253.921 483.345L264.343 483.393C264.073 485.629 263.399 487.786 262.32 489.864C261.257 491.926 259.822 493.774 258.014 495.408C256.221 497.026 254.08 498.311 251.59 499.262C249.115 500.198 246.316 500.666 243.191 500.666C238.845 500.666 234.959 499.683 231.533 497.716C228.122 495.749 225.426 492.902 223.443 489.174C221.476 485.447 220.493 480.934 220.493 475.636C220.493 470.323 221.492 465.802 223.491 462.075C225.489 458.347 228.202 455.508 231.628 453.557C235.054 451.59 238.908 450.607 243.191 450.607C246.014 450.607 248.632 451.003 251.043 451.796C253.469 452.589 255.619 453.747 257.49 455.27C259.362 456.777 260.885 458.625 262.059 460.814C263.248 463.002 264.009 465.509 264.343 468.332ZM288.052 500.714C284.356 500.714 281.16 499.929 278.464 498.358C275.783 496.772 273.713 494.567 272.254 491.744C270.794 488.905 270.065 485.613 270.065 481.87C270.065 478.095 270.794 474.796 272.254 471.972C273.713 469.133 275.783 466.928 278.464 465.358C281.16 463.772 284.356 462.979 288.052 462.979C291.748 462.979 294.936 463.772 297.617 465.358C300.313 466.928 302.391 469.133 303.85 471.972C305.31 474.796 306.039 478.095 306.039 481.87C306.039 485.613 305.31 488.905 303.85 491.744C302.391 494.567 300.313 496.772 297.617 498.358C294.936 499.929 291.748 500.714 288.052 500.714ZM288.1 492.862C289.781 492.862 291.185 492.386 292.311 491.435C293.437 490.467 294.286 489.151 294.857 487.485C295.444 485.82 295.737 483.924 295.737 481.799C295.737 479.673 295.444 477.778 294.857 476.112C294.286 474.447 293.437 473.13 292.311 472.163C291.185 471.195 289.781 470.711 288.1 470.711C286.402 470.711 284.975 471.195 283.817 472.163C282.675 473.13 281.81 474.447 281.223 476.112C280.652 477.778 280.367 479.673 280.367 481.799C280.367 483.924 280.652 485.82 281.223 487.485C281.81 489.151 282.675 490.467 283.817 491.435C284.975 492.386 286.402 492.862 288.1 492.862ZM322.765 478.872V500H312.63V463.455H322.29V469.902H322.718C323.527 467.777 324.883 466.096 326.786 464.858C328.69 463.605 330.998 462.979 333.71 462.979C336.248 462.979 338.461 463.534 340.348 464.644C342.236 465.754 343.703 467.341 344.75 469.403C345.797 471.449 346.32 473.892 346.32 476.731V500H336.184V478.539C336.2 476.303 335.629 474.558 334.471 473.305C333.313 472.036 331.719 471.401 329.689 471.401C328.325 471.401 327.119 471.695 326.073 472.282C325.042 472.868 324.233 473.725 323.646 474.851C323.075 475.962 322.781 477.302 322.765 478.872ZM384.715 473.876L375.436 474.447C375.278 473.654 374.937 472.94 374.413 472.305C373.89 471.655 373.2 471.14 372.343 470.759C371.503 470.362 370.495 470.164 369.322 470.164C367.751 470.164 366.427 470.497 365.348 471.163C364.27 471.814 363.73 472.686 363.73 473.781C363.73 474.653 364.079 475.391 364.777 475.993C365.475 476.596 366.673 477.08 368.37 477.445L374.984 478.777C378.537 479.507 381.186 480.68 382.931 482.298C384.676 483.916 385.548 486.042 385.548 488.675C385.548 491.07 384.842 493.172 383.431 494.98C382.035 496.788 380.115 498.2 377.673 499.215C375.246 500.214 372.446 500.714 369.274 500.714C364.436 500.714 360.582 499.707 357.711 497.692C354.856 495.662 353.182 492.902 352.691 489.412L362.66 488.889C362.961 490.364 363.691 491.49 364.849 492.267C366.006 493.029 367.49 493.409 369.298 493.409C371.074 493.409 372.502 493.068 373.58 492.386C374.675 491.688 375.23 490.792 375.246 489.698C375.23 488.778 374.841 488.024 374.08 487.438C373.319 486.835 372.145 486.375 370.559 486.058L364.23 484.797C360.661 484.083 358.004 482.846 356.259 481.085C354.53 479.324 353.666 477.08 353.666 474.352C353.666 472.004 354.3 469.982 355.569 468.284C356.854 466.587 358.655 465.279 360.97 464.359C363.302 463.439 366.03 462.979 369.155 462.979C373.771 462.979 377.403 463.954 380.052 465.905C382.717 467.856 384.271 470.513 384.715 473.876ZM411.369 463.455V471.068H389.361V463.455H411.369ZM394.357 454.699H404.493V488.77C404.493 489.706 404.636 490.435 404.921 490.959C405.207 491.466 405.603 491.823 406.111 492.029C406.634 492.236 407.237 492.339 407.919 492.339C408.395 492.339 408.871 492.299 409.347 492.22C409.823 492.125 410.187 492.053 410.441 492.006L412.035 499.548C411.528 499.707 410.814 499.889 409.894 500.095C408.974 500.317 407.856 500.452 406.539 500.5C404.096 500.595 401.955 500.27 400.115 499.524C398.291 498.779 396.871 497.621 395.856 496.05C394.841 494.48 394.341 492.497 394.357 490.102V454.699ZM417.972 500V463.455H427.798V469.831H428.179C428.845 467.563 429.963 465.85 431.533 464.692C433.104 463.518 434.912 462.931 436.958 462.931C437.466 462.931 438.013 462.963 438.6 463.026C439.187 463.09 439.702 463.177 440.146 463.288V472.282C439.67 472.139 439.012 472.012 438.171 471.901C437.331 471.79 436.561 471.734 435.864 471.734C434.373 471.734 433.04 472.06 431.866 472.71C430.708 473.344 429.789 474.233 429.106 475.375C428.44 476.517 428.107 477.833 428.107 479.324V500H417.972ZM468.822 484.44V463.455H478.958V500H469.227V493.362H468.846C468.021 495.503 466.649 497.224 464.73 498.525C462.827 499.826 460.503 500.476 457.759 500.476C455.316 500.476 453.167 499.921 451.311 498.81C449.455 497.7 448.004 496.122 446.957 494.076C445.926 492.029 445.402 489.579 445.387 486.724V463.455H455.522V484.915C455.538 487.073 456.117 488.778 457.259 490.031C458.401 491.284 459.932 491.911 461.851 491.911C463.072 491.911 464.214 491.633 465.277 491.078C466.34 490.507 467.196 489.666 467.847 488.556C468.513 487.445 468.838 486.073 468.822 484.44ZM503.577 500.714C499.834 500.714 496.614 499.921 493.918 498.335C491.237 496.732 489.175 494.512 487.731 491.673C486.304 488.833 485.59 485.566 485.59 481.87C485.59 478.127 486.312 474.843 487.755 472.02C489.215 469.181 491.284 466.968 493.965 465.382C496.646 463.78 499.834 462.979 503.53 462.979C506.718 462.979 509.51 463.558 511.905 464.716C514.3 465.873 516.195 467.499 517.591 469.593C518.987 471.687 519.756 474.145 519.899 476.969H510.334C510.065 475.145 509.351 473.677 508.193 472.567C507.051 471.441 505.552 470.878 503.696 470.878C502.126 470.878 500.754 471.306 499.58 472.163C498.422 473.003 497.518 474.233 496.868 475.85C496.217 477.468 495.892 479.427 495.892 481.727C495.892 484.059 496.21 486.042 496.844 487.675C497.494 489.309 498.406 490.554 499.58 491.411C500.754 492.267 502.126 492.696 503.696 492.696C504.854 492.696 505.893 492.458 506.813 491.982C507.749 491.506 508.518 490.816 509.121 489.912C509.74 488.992 510.144 487.89 510.334 486.605H519.899C519.74 489.396 518.979 491.855 517.615 493.98C516.267 496.09 514.403 497.74 512.024 498.929C509.644 500.119 506.829 500.714 503.577 500.714ZM545.827 463.455V471.068H523.819V463.455H545.827ZM528.815 454.699H538.951V488.77C538.951 489.706 539.094 490.435 539.379 490.959C539.665 491.466 540.061 491.823 540.569 492.029C541.092 492.236 541.695 492.339 542.377 492.339C542.853 492.339 543.329 492.299 543.805 492.22C544.281 492.125 544.645 492.053 544.899 492.006L546.493 499.548C545.986 499.707 545.272 499.889 544.352 500.095C543.432 500.317 542.314 500.452 540.997 500.5C538.554 500.595 536.413 500.27 534.573 499.524C532.749 498.779 531.329 497.621 530.314 496.05C529.299 494.48 528.799 492.497 528.815 490.102V454.699ZM552.43 500V463.455H562.565V500H552.43ZM557.521 458.744C556.014 458.744 554.722 458.244 553.643 457.245C552.58 456.23 552.049 455.016 552.049 453.604C552.049 452.209 552.58 451.011 553.643 450.012C554.722 448.997 556.014 448.489 557.521 448.489C559.028 448.489 560.313 448.997 561.376 450.012C562.454 451.011 562.993 452.209 562.993 453.604C562.993 455.016 562.454 456.23 561.376 457.245C560.313 458.244 559.028 458.744 557.521 458.744ZM587.196 500.714C583.501 500.714 580.305 499.929 577.608 498.358C574.927 496.772 572.857 494.567 571.398 491.744C569.939 488.905 569.209 485.613 569.209 481.87C569.209 478.095 569.939 474.796 571.398 471.972C572.857 469.133 574.927 466.928 577.608 465.358C580.305 463.772 583.501 462.979 587.196 462.979C590.892 462.979 594.08 463.772 596.761 465.358C599.458 466.928 601.535 469.133 602.995 471.972C604.454 474.796 605.184 478.095 605.184 481.87C605.184 485.613 604.454 488.905 602.995 491.744C601.535 494.567 599.458 496.772 596.761 498.358C594.08 499.929 590.892 500.714 587.196 500.714ZM587.244 492.862C588.925 492.862 590.329 492.386 591.455 491.435C592.582 490.467 593.43 489.151 594.001 487.485C594.588 485.82 594.881 483.924 594.881 481.799C594.881 479.673 594.588 477.778 594.001 476.112C593.43 474.447 592.582 473.13 591.455 472.163C590.329 471.195 588.925 470.711 587.244 470.711C585.547 470.711 584.119 471.195 582.961 472.163C581.819 473.13 580.955 474.447 580.368 476.112C579.797 477.778 579.511 479.673 579.511 481.799C579.511 483.924 579.797 485.82 580.368 487.485C580.955 489.151 581.819 490.467 582.961 491.435C584.119 492.386 585.547 492.862 587.244 492.862ZM621.91 478.872V500H611.774V463.455H621.434V469.902H621.862C622.671 467.777 624.027 466.096 625.931 464.858C627.834 463.605 630.142 462.979 632.854 462.979C635.392 462.979 637.605 463.534 639.493 464.644C641.38 465.754 642.847 467.341 643.894 469.403C644.941 471.449 645.465 473.892 645.465 476.731V500H635.329V478.539C635.345 476.303 634.774 474.558 633.616 473.305C632.458 472.036 630.864 471.401 628.834 471.401C627.469 471.401 626.264 471.695 625.217 472.282C624.186 472.868 623.377 473.725 622.79 474.851C622.219 475.962 621.926 477.302 621.91 478.872Z" fill="#00534A"/>
</svg>
